<svg width="16" height="18" viewBox="0 0 16 18" fill="none" xmlns="http://www.w3.org/2000/svg">
<g clip-path="url(#clip0_5977_53847)">
<path fill-rule="evenodd" clip-rule="evenodd" d="M15 10C15 13.866 11.866 17 8 17C4.13401 17 1 13.866 1 10C1 6.13401 4.13401 3 8 3C11.866 3 15 6.13401 15 10ZM9.12728 13C9.12728 13.6225 8.62258 14.1272 8.00001 14.1272C7.37744 14.1272 6.87274 13.6225 6.87274 13C6.87274 12.3774 7.37744 11.8727 8.00001 11.8727C8.62258 11.8727 9.12728 12.3774 9.12728 13ZM9 6.5C9 5.94772 8.55229 5.5 8 5.5C7.44772 5.5 7 5.94772 7 6.5V9.75C7 10.3023 7.44772 10.75 8 10.75C8.55229 10.75 9 10.3023 9 9.75V6.5Z" fill="#222222"/>
</g>
<defs>
<clipPath id="clip0_5977_53847">
<rect width="16" height="16" fill="white" transform="translate(0 2)"/>
</clipPath>
</defs>
</svg>
